<svg xmlns="http://www.w3.org/2000/svg" x="0px" y="0px" viewBox="0 0 24 24" style="enable-background:new 0 0 24 24;" xml:space="preserve">
<path d="M8.7,2.3c0-0.5-0.4-1-1.1-1s-1,0.4-1,1V4C5.2,4,4.1,5.2,4.1,6.7H2.4c-0.5,0-1,0.4-1,1s0.4,1,1,1h1.7v2.3H2.4
    c-0.5,0.1-1,0.5-1,1.1s0.4,1,1,1h1.7v2.3H2.4c-0.5,0-1,0.4-1,1c0,0.6,0.4,1.1,1,1.1h1.7c0,1.5,1.2,2.7,2.7,2.7v1.7c0,0.5,0.4,1,1,1
    s1-0.4,1-1V20h2.3v1.7c0,0.5,0.4,1,1,1s1-0.4,1-1V20h2.3v1.7c0,0.5,0.4,1,1,1c0.5,0,1-0.4,1-1V20c1.5,0,2.7-1.2,2.7-2.7h1.7
    c0.5,0,1-0.4,1-1c0-0.5-0.4-1-1-1h-1.7v-2.3h1.7c0.5,0,1-0.4,1-1s-0.4-1-1-1h-1.7V8.7h1.7c0.5,0,1-0.4,1-1s-0.2-1.1-0.7-1.1H20
    C20,5.2,18.8,4,17.3,4V2.3c0-0.5-0.4-1-1-1c-0.5,0-1,0.4-1,1V4h-2.3V2.3c-0.1-0.5-0.5-1-1.1-1s-1,0.4-1,1V4H8.7V2.3z M8,6.7h8
    c0.7,0,1.4,0.6,1.4,1.3v8c0,0.7-0.6,1.3-1.3,1.3H8c-0.6,0.1-1.3-0.5-1.3-1.3V8C6.7,7.3,7.3,6.7,8,6.7z M16,8H8v8h8V8H16z"/>
</svg>
