<?xml version="1.0" encoding="UTF-8"?><svg xmlns="http://www.w3.org/2000/svg" width="1200" height="675" viewBox="0 0 1200 675"><g id="a"/><g id="b"/><g id="c"/><g id="d"><rect x="796.54" y="464.86" width="304.44" height="83.45" fill="#dcddde"/><rect x="417.19" y="429.61" width="370.49" height="118.69" fill="#dcddde"/><rect x="105.43" y="429.61" width="297.56" height="118.69" fill="#dcddde"/><rect x="105.43" y="556.68" width="993.92" height="78.42" fill="#dcddde"/><rect x="417.19" y="296.73" width="370.49" height="118.69" fill="#dcddde"/><rect x="807.67" y="501.74" width="280.71" height="34.55" fill="#aedfe8"/><rect x="102.21" y="46.34" width="302.59" height="367.67" fill="#dcddde"/><rect x="416.54" y="46.34" width="370.37" height="237.37" fill="#dcddde"/><rect x="796.54" y="46.34" width="304.44" height="406.96" fill="#dcddde"/><rect x="425.3" y="78.85" width="353.39" height="193.08" fill="#d2de26"/><rect x="440.34" y="113.4" width="323.32" height="36.58" fill="#e6eabd"/><text transform="translate(539.84 137.79)" font-family="ArialMT, Arial" font-size="16.2"><tspan x="0" y="0">Arm</tspan></text><text transform="translate(569.53 132.4) scale(.58)" font-family="ArialMT, Arial" font-size="16.2"><tspan x="0" y="0">®</tspan></text><text transform="translate(576.49 137.79)" font-family="ArialMT, Arial" font-size="16.2" letter-spacing="0em"><tspan x="0" y="0">Cortex</tspan></text><text transform="translate(624.2 132.4) scale(.58)" font-family="ArialMT, Arial" font-size="16.2"><tspan x="0" y="0">®</tspan></text><text transform="translate(631.16 137.79)" font-family="ArialMT, Arial" font-size="16.2"><tspan x="0" y="0">-M7</tspan></text><text transform="translate(568.67 579.68)" font-family="Arial-BoldMT, Arial" font-size="16.2"><tspan x="0" y="0">Security</tspan></text><rect x="112.79" y="80.88" width="280.71" height="35.66" fill="#faba63"/><text transform="translate(204.53 105.4)" font-family="ArialMT, Arial" font-size="16.2"><tspan x="0" y="0">Secure JTAG</tspan></text><rect x="111.54" y="127.69" width="283.22" height="37.89" fill="#faba63"/><text transform="translate(216.68 154.43)" font-family="ArialMT, Arial" font-size="16.2"><tspan x="0" y="0">PLL, OSC</tspan></text><rect x="440.34" y="194.7" width="95.24" height="30.49" fill="#e6eabd"/><text transform="translate(473.01 215.69)" font-family="ArialMT, Arial" font-size="16.2"><tspan x="0" y="0">FPU</tspan></text><rect x="111.54" y="272.56" width="283.22" height="37.89" fill="#faba63"/><text transform="translate(205.44 297.08)" font-family="ArialMT, Arial" font-size="16.2"><tspan x="0" y="0">3 x GP Timer</tspan></text><rect x="111.54" y="321.59" width="283.22" height="35.66" fill="#faba63"/><text transform="translate(202.75 346.11)" font-family="ArialMT, Arial" font-size="16.2"><tspan x="0" y="0">1 x FlexPWM </tspan></text><text transform="translate(930.59 489.85)" font-family="Arial-BoldMT, Arial" font-size="16.2"><tspan x="0" y="0">ADC</tspan></text><text transform="translate(887.83 525.7)" font-family="ArialMT, Arial" font-size="16.2"><tspan x="0" y="0">1 x ADC (15-ch.)</tspan></text><rect x="111.54" y="176.72" width="283.22" height="37.89" fill="#faba63"/><text transform="translate(230.65 201.24)" font-family="ArialMT, Arial" font-size="16.2"><tspan x="0" y="0">eDMA</tspan></text><rect x="440.34" y="231.28" width="323.32" height="34.55" fill="#e6eabd"/><text transform="translate(531.47 254.31)" font-family="ArialMT, Arial" font-size="16.2"><tspan x="0" y="0">Up to 128 KB TCM</tspan></text><rect x="605.76" y="156.08" width="157.9" height="32.52" fill="#e6eabd"/><text transform="translate(633.76 177.98)" font-family="ArialMT, Arial" font-size="16.2"><tspan x="0" y="0">8 KB D-cache</tspan></text><text transform="translate(899.95 68.69)" font-family="Arial-BoldMT, Arial" font-size="16.2"><tspan x="0" y="0">Connectivity</tspan></text><rect x="806.94" y="84.95" width="283.22" height="34.55" fill="#c3c4e3"/><text transform="translate(913.44 107.3)" font-family="ArialMT, Arial" font-size="16.2"><tspan x="0" y="0">4 x UART</tspan></text><text transform="translate(553.11 448.75)" font-family="Arial-BoldMT, Arial" font-size="16.2"><tspan x="0" y="0">Power Mgmt</tspan></text><rect x="111.54" y="225.76" width="283.22" height="35.66" fill="#faba63"/><text transform="translate(203.62 250.27)" font-family="ArialMT, Arial" font-size="16.2"><tspan x="0" y="0">4 x Watchdog</tspan></text><rect x="424.57" y="501.74" width="353.39" height="34.55" fill="#aedfe8"/><text transform="translate(551.31 525.98)" font-family="ArialMT, Arial" font-size="16.2"><tspan x="0" y="0">Temp Monitor</tspan></text><rect x="655.88" y="194.7" width="107.77" height="30.49" fill="#e6eabd"/><text transform="translate(688.73 215.69)" font-family="ArialMT, Arial" font-size="16.2"><tspan x="0" y="0">NVIC</tspan></text><rect x="440.34" y="156.08" width="152.89" height="32.52" fill="#e6eabd"/><text transform="translate(464.49 177.98)" font-family="ArialMT, Arial" font-size="16.2"><tspan x="0" y="0">16 KB I-cache</tspan></text><text transform="translate(535.99 323.88)" font-family="Arial-BoldMT, Arial" font-size="16.2"><tspan x="0" y="0">External Memory</tspan></text><rect x="424.57" y="332.16" width="353.39" height="75.27" fill="#f6d5c0"/><text transform="translate(513.92 363.38)" font-family="ArialMT, Arial" font-size="16.2"><tspan x="0" y="0">Dual-Channel Quad-SPI</tspan><tspan x="-11.23" y="19.44">with On-The-Fly Decryption</tspan></text><rect x="806.94" y="127.63" width="283.22" height="34.55" fill="#c3c4e3"/><text transform="translate(924.77 149.98)" font-family="ArialMT, Arial" font-size="16.2"><tspan x="0" y="0">2 x I</tspan></text><text transform="translate(955.38 144.59) scale(.58)" font-family="ArialMT, Arial" font-size="16.2"><tspan x="0" y="0">2</tspan></text><text transform="translate(960.63 149.98)" font-family="ArialMT, Arial" font-size="16.2"><tspan x="0" y="0">C</tspan></text><rect x="806.94" y="349.16" width="283.22" height="32.52" fill="#c3c4e3"/><text transform="translate(899.05 371.52)" font-family="ArialMT, Arial" font-size="16.2"><tspan x="0" y="0">S/PDIF Tx/Rx</tspan></text><rect x="806.94" y="304.45" width="283.22" height="34.55" fill="#c3c4e3"/><text transform="translate(909.91 326.8)" font-family="ArialMT, Arial" font-size="16.2"><tspan x="0" y="0">2 x I</tspan></text><text transform="translate(940.52 321.41) scale(.58)" font-family="ArialMT, Arial" font-size="16.2"><tspan x="0" y="0">2</tspan></text><text transform="translate(945.78 326.8)" font-family="ArialMT, Arial" font-size="16.2" letter-spacing="0em"><tspan x="0" y="0">S/SAI</tspan></text><rect x="806.94" y="215.02" width="283.22" height="34.55" fill="#c3c4e3"/><text transform="translate(924.7 239.41)" font-family="ArialMT, Arial" font-size="16.2"><tspan x="0" y="0">FlexIO</tspan></text><rect x="806.94" y="391.84" width="283.22" height="48.78" fill="#c3c4e3"/><text transform="translate(901.15 412.17)" font-family="ArialMT, Arial" font-size="16.2"><tspan x="0" y="0">USB2.0 OTG</tspan><tspan x="12.15" y="19.44">with PHY </tspan></text><rect x="806.94" y="172.34" width="283.22" height="32.52" fill="#c3c4e3"/><text transform="translate(922.44 194.7)" font-family="ArialMT, Arial" font-size="16.2"><tspan x="0" y="0">2 x SPI</tspan></text><rect x="806.94" y="259.73" width="283.22" height="32.52" fill="#c3c4e3"/><text transform="translate(901.27 282.09)" font-family="ArialMT, Arial" font-size="16.2"><tspan x="0" y="0">4 x 4 Keypad</tspan></text><rect x="540.59" y="194.7" width="110.28" height="30.49" fill="#e6eabd"/><text transform="translate(580.64 215.69)" font-family="ArialMT, Arial" font-size="16.2"><tspan x="0" y="0">MPU</tspan></text><text transform="translate(190.72 448.75)" font-family="Arial-BoldMT, Arial" font-size="16.2"><tspan x="0" y="0">Internal Memory</tspan></text><rect x="112.93" y="501.74" width="280.71" height="34.55" fill="#aedfe8"/><text transform="translate(210.07 525.98)" font-family="ArialMT, Arial" font-size="16.2"><tspan x="0" y="0">64 KB ROM</tspan></text><rect x="112.93" y="462.97" width="280.71" height="32.52" fill="#aedfe8"/><text transform="translate(181.26 487.36)" font-family="ArialMT, Arial" font-size="16.2"><tspan x="0" y="0">128 KB SRAM/TCM</tspan></text><rect x="424.57" y="462.97" width="353.39" height="32.52" fill="#aedfe8"/><text transform="translate(551.31 485.33)" font-family="ArialMT, Arial" font-size="16.2"><tspan x="0" y="0">DCDC &amp; LDO</tspan></text><text transform="translate(193.29 68.69)" font-family="Arial-BoldMT, Arial" font-size="16.2"><tspan x="0" y="0">System Control</tspan></text><text transform="translate(526.54 68.69)" font-family="Arial-BoldMT, Arial" font-size="16.2"><tspan x="0" y="0">Main CPU Platform</tspan></text><text transform="translate(580.99 103.24)" font-family="Arial-BoldMT, Arial" font-size="16.2"><tspan x="0" y="0">Core</tspan></text><rect x="111.54" y="366.17" width="283.22" height="37.89" fill="#faba63"/><text transform="translate(226.6 390.69)" font-family="ArialMT, Arial" font-size="16.2"><tspan x="0" y="0">IOMUX</tspan></text><rect x="114.51" y="591.87" width="233.09" height="34.55" fill="#87a3d5"/><text transform="translate(159.62 614.23)" font-family="ArialMT, Arial" font-size="16.2"><tspan x="0" y="0">Ciphers &amp; RNG</tspan></text><rect x="362.64" y="591.87" width="230.58" height="34.55" fill="#87a3d5"/><text transform="translate(425.33 614.23)" font-family="ArialMT, Arial" font-size="16.2"><tspan x="0" y="0">Secure RTC</tspan></text><rect x="610.77" y="591.87" width="230.58" height="34.55" fill="#87a3d5"/><text transform="translate(707.81 614.23)" font-family="ArialMT, Arial" font-size="16.2"><tspan x="0" y="0">eFuse</tspan></text><rect x="858.9" y="591.87" width="230.58" height="34.55" fill="#87a3d5"/><text transform="translate(954.55 614.23)" font-family="ArialMT, Arial" font-size="16.2"><tspan x="0" y="0">HAB</tspan></text></g></svg>